
<svg version="1.0" xmlns="http://www.w3.org/2000/svg"
 width="1010.000000pt" height="814.000000pt" viewBox="0 0 1010.000000 814.000000"
 preserveAspectRatio="xMidYMid meet">

<g transform="translate(0.000000,814.000000) scale(0.100000,-0.100000)"
fill="#FFFFFF" stroke="none">
<path d="M0 4070 l0 -4070 5050 0 5050 0 0 4070 0 4070 -5050 0 -5050 0 0
-4070z m5345 2542 c454 -81 864 -266 1210 -545 158 -127 455 -455 515 -568 11
-19 -24 -19 -2140 -19 -2116 0 -2151 0 -2140 19 75 141 405 488 600 633 386
284 790 442 1290 502 19 2 152 2 295 1 202 -3 285 -8 370 -23z m2575 -1634
c104 -33 119 -35 157 -25 23 6 46 8 50 4 10 -10 62 -323 63 -373 0 -44 -19
-70 -44 -61 -8 3 -35 46 -61 96 -110 213 -321 326 -547 293 -137 -20 -233 -77
-281 -167 -32 -61 -29 -175 7 -248 50 -103 112 -142 361 -227 279 -95 404
-161 510 -267 73 -73 108 -157 113 -270 8 -178 -44 -321 -158 -433 -77 -76
-155 -120 -265 -151 -73 -20 -96 -21 -265 -16 -197 5 -257 17 -376 71 -67 31
-80 55 -129 249 -46 183 -50 211 -30 231 35 35 45 26 108 -97 60 -117 117
-189 191 -242 124 -87 259 -119 417 -95 211 30 340 165 341 356 0 94 -27 157
-96 222 -65 62 -100 80 -273 141 -295 104 -424 166 -509 244 -96 87 -135 178
-135 312 1 130 38 231 119 318 61 65 130 109 222 140 105 37 100 36 255 33
129 -2 149 -5 255 -38z m-5690 -3 c16 -20 7 -31 -51 -60 -61 -31 -76 -54 -93
-141 -17 -84 -31 -612 -17 -633 8 -12 17 -10 53 14 164 108 630 530 698 633
32 49 38 83 17 100 -7 6 -40 18 -72 27 -52 13 -74 27 -75 46 0 21 51 26 322
27 233 1 299 -2 307 -12 20 -24 1 -44 -61 -65 -75 -25 -167 -77 -239 -133
-143 -111 -728 -610 -734 -626 -5 -13 71 -93 327 -347 479 -475 542 -527 685
-563 70 -18 98 -41 75 -64 -10 -10 -66 -13 -224 -13 l-211 0 -80 90 c-131 145
-699 715 -730 731 -23 13 -31 13 -44 2 -13 -11 -15 -47 -10 -288 5 -317 14
-365 70 -416 25 -24 48 -34 84 -39 99 -12 114 -16 120 -32 3 -9 2 -23 -4 -32
-9 -14 -47 -16 -324 -18 -173 -1 -322 1 -331 3 -28 8 -22 43 10 55 135 54 136
55 152 184 11 86 14 1238 4 1340 -3 33 -13 73 -22 89 -21 36 -77 66 -150 80
-65 13 -89 39 -58 62 29 21 588 21 606 -1z m2923 -173 c27 -24 55 -74 57 -102
4 -50 -1 -62 -46 -110 -34 -37 -54 -50 -75 -50 -51 0 -119 81 -119 143 0 31
48 103 86 128 32 21 67 18 97 -9z m37 -593 c-3 -35 -5 -246 -5 -469 l0 -405
24 -42 c26 -46 50 -59 129 -68 60 -8 80 -29 57 -61 -13 -19 -25 -20 -266 -18
-215 2 -254 5 -268 18 -22 23 -6 45 55 76 37 19 52 33 61 60 8 24 12 139 12
375 1 335 0 341 -22 380 -20 35 -29 42 -82 55 -100 25 -84 57 51 104 38 13 92
34 119 46 78 35 98 39 120 25 18 -11 19 -21 15 -76z m-958 30 c185 -59 321
-195 374 -374 28 -95 24 -257 -10 -362 -45 -140 -146 -250 -291 -319 -106 -50
-172 -64 -312 -64 -196 0 -315 48 -427 172 -104 114 -149 235 -149 398 0 307
222 555 518 579 99 8 216 -3 297 -30z m2076 15 c172 -36 331 -155 396 -296 75
-161 75 -368 0 -525 -64 -132 -234 -260 -399 -299 -103 -24 -318 -16 -397 15
-217 84 -358 296 -358 536 0 104 21 191 67 278 41 78 123 173 190 218 124 86
309 113 501 73z m772 -1600 c0 -3 -39 -58 -87 -122 -114 -155 -372 -412 -523
-524 -343 -254 -733 -417 -1150 -483 -189 -30 -429 -35 -1710 -35 l-1264 0
149 88 c83 49 294 173 470 276 176 104 326 194 333 200 10 9 -10 32 -90 106
-160 148 -368 386 -418 480 -11 20 -8 20 2140 20 1182 0 2150 -3 2150 -6z"/>
<path d="M3853 4183 c-104 -43 -176 -122 -209 -228 -24 -77 -29 -255 -10 -345
35 -166 144 -313 283 -382 61 -30 75 -33 153 -32 71 1 96 6 148 29 138 62 211
201 212 403 0 231 -115 452 -276 532 -60 29 -79 34 -164 37 -74 2 -104 -1
-137 -14z"/>
<path d="M6055 4199 c-140 -18 -253 -130 -285 -284 -18 -85 -16 -256 4 -334
38 -149 145 -285 274 -349 70 -34 82 -37 156 -35 93 1 149 19 215 67 94 70
142 191 142 366 1 124 -17 203 -69 309 -91 186 -255 283 -437 260z"/>
</g>
</svg>